<svg width="23" height="23" viewBox="0 0 23 23" fill="none" xmlns="http://www.w3.org/2000/svg">
<circle cx="11.2903" cy="11.2903" r="11.2903" fill="#C0C7D6"/>
<g clip-path="url(#clip0_280_12)">
<path d="M14.9048 7.67625C12.7722 5.54314 9.30123 5.54314 7.16869 7.67625C6.13568 8.70994 5.56665 10.084 5.56665 11.5453C5.56665 13.0067 6.13568 14.3807 7.16869 15.414C8.23517 16.4808 9.63596 17.0139 11.0367 17.0139C12.4375 17.0139 13.8383 16.4808 14.9047 15.414C17.0373 13.2809 17.0373 9.80977 14.9048 7.67625ZM14.3056 14.8147C12.5032 16.6176 9.57027 16.6176 7.7678 14.8147C6.89497 13.9416 6.41406 12.7803 6.41406 11.5453C6.41406 10.3103 6.89497 9.14902 7.7678 8.27552C9.57027 6.47257 12.5032 6.473 14.3056 8.27552C16.1077 10.0785 16.1077 13.0122 14.3056 14.8147Z" fill="white"/>
<path d="M12.7404 12.6819L11.6038 11.5454L12.7404 10.4089C12.897 10.2521 12.897 9.99759 12.7408 9.84038C12.5839 9.68279 12.3297 9.6832 12.1727 9.83998L11.0353 10.9773L9.89789 9.83998C9.74091 9.6832 9.48676 9.68279 9.32978 9.84038C9.17321 9.99757 9.17321 10.252 9.33019 10.4089L10.4668 11.5454L9.33019 12.6819C9.17321 12.8387 9.17321 13.0931 9.32978 13.2503C9.40808 13.3291 9.51126 13.3681 9.61405 13.3681C9.71684 13.3681 9.81961 13.3287 9.89791 13.2507L11.0353 12.1134L12.1728 13.2507C12.2511 13.3291 12.3538 13.3681 12.4566 13.3681C12.5594 13.3681 12.6626 13.3287 12.7409 13.2503C12.8974 13.0931 12.8974 12.8387 12.7404 12.6819Z" fill="white"/>
</g>
<defs>
<clipPath id="clip0_280_12">
<rect width="12.5448" height="12.5448" fill="white" transform="translate(5.01782 5.01794)"/>
</clipPath>
</defs>
</svg>
